<?xml version="1.0" standalone="no"?>
<!DOCTYPE svg PUBLIC "-//W3C//DTD SVG 20010904//EN"
 "http://www.w3.org/TR/2001/REC-SVG-20010904/DTD/svg10.dtd">
<svg version="1.0" xmlns="http://www.w3.org/2000/svg"
 width="336.000000pt" height="314.000000pt" viewBox="0 0 336.000000 314.000000"
 preserveAspectRatio="xMidYMid meet">

<g transform="translate(0.000000,314.000000) scale(0.100000,-0.100000)"
fill="#000000" stroke="none">
<path d="M1645 3094 c-114 -19 -266 -79 -362 -145 -70 -48 -169 -145 -219
-216 -53 -73 -116 -205 -139 -288 -23 -86 -31 -267 -15 -362 49 -309 267 -573
563 -683 l57 -21 0 -139 c0 -106 3 -139 13 -143 30 -12 36 10 39 138 3 121 4
130 22 127 10 -2 46 -7 80 -10 l61 -7 3 -122 c2 -88 6 -122 16 -126 29 -11 35
10 38 128 l3 120 68 7 c38 3 75 9 83 12 12 4 14 -17 14 -129 l0 -135 25 0 25
0 0 139 0 139 38 12 c71 23 208 102 274 158 223 189 330 437 315 727 -7 130
-25 200 -78 313 -112 240 -301 402 -556 478 -69 20 -115 26 -213 29 -69 2
-138 1 -155 -1z m307 -70 c292 -67 530 -290 612 -575 36 -126 38 -297 6 -434
-20 -86 -104 -245 -169 -321 -89 -106 -217 -195 -343 -240 l-38 -13 0 84 0 85
46 21 c71 34 147 109 177 177 36 78 45 162 22 185 -9 10 -25 16 -34 13 -9 -3
-34 -10 -57 -15 -79 -21 -163 -93 -196 -168 -9 -19 -13 -86 -13 -212 l0 -184
-25 -7 c-14 -4 -51 -10 -82 -13 l-58 -7 0 270 0 270 28 5 c109 23 168 60 201
127 20 41 21 60 21 281 l0 237 -24 16 c-51 33 -137 48 -271 48 -115 0 -136 -2
-183 -23 -82 -37 -82 -36 -82 -267 0 -219 8 -268 55 -329 32 -43 73 -65 145
-80 l55 -12 0 -269 0 -269 -53 3 c-29 2 -65 7 -80 11 l-27 8 0 184 c0 147 -3
191 -16 219 -37 82 -112 140 -216 167 -53 14 -58 14 -71 -4 -20 -26 -9 -110
24 -182 31 -70 97 -137 173 -175 l51 -26 0 -85 c0 -47 -3 -85 -6 -85 -4 0 -48
20 -98 43 -222 106 -383 302 -447 542 -29 111 -29 288 0 400 80 302 322 534
625 600 87 19 262 18 348 -1z m-38 -437 l49 -12 -56 -38 c-32 -20 -69 -51 -83
-67 l-27 -29 -56 43 c-31 23 -76 54 -100 69 l-44 26 34 9 c47 14 223 13 283
-1z m-264 -111 c120 -80 228 -196 280 -300 49 -99 48 -107 -16 -143 -59 -34
-80 -31 -89 14 -19 102 -126 239 -228 293 l-47 25 0 88 c0 68 3 86 13 81 6 -4
46 -30 87 -58z m350 -128 l0 -172 -37 62 c-21 34 -57 85 -81 112 -35 41 -41
53 -33 69 10 18 127 101 143 101 5 0 8 -77 8 -172z m-342 -131 c64 -63 112
-144 112 -193 0 -26 -1 -27 -45 -21 -61 9 -118 40 -146 79 -19 27 -24 48 -27
126 l-4 94 23 -13 c13 -7 52 -39 87 -72z m-271 -292 c104 -44 151 -121 144
-238 -1 -15 -6 -14 -43 9 -89 55 -141 124 -154 202 -7 48 -3 50 53 27z m829
-27 c-13 -78 -65 -147 -153 -201 -48 -31 -57 -22 -47 46 13 85 55 141 134 176
67 31 74 29 66 -21z"/>
<path d="M245 980 c-104 -3 -191 -7 -192 -8 -2 -1 -3 -6 -3 -11 0 -5 41 -6 90
-3 l90 5 -2 -214 -3 -213 -25 -13 c-22 -11 -17 -13 50 -12 61 0 71 2 53 11
-23 11 -23 13 -23 225 l0 213 64 0 c58 0 67 -3 85 -26 l21 -27 0 42 c0 22 -3
40 -7 39 -5 -1 -93 -5 -198 -8z"/>
<path d="M850 948 l0 -37 25 24 c20 21 34 25 85 25 l60 0 0 -215 c0 -214 0
-216 -22 -225 -17 -6 -3 -9 52 -9 67 -1 72 1 50 12 l-25 13 -3 212 -2 212 63
0 c63 0 90 -11 100 -40 3 -8 6 3 6 25 l1 40 -195 0 -195 0 0 -37z"/>
<path d="M1467 979 c-62 -10 -131 -51 -162 -97 -48 -74 -54 -175 -15 -252 43
-82 110 -121 220 -128 67 -3 81 -1 131 25 l56 28 49 -25 c41 -21 62 -25 135
-25 78 0 90 3 135 30 92 58 134 172 104 283 -16 60 -91 136 -149 152 -76 20
-167 14 -227 -15 l-52 -25 -36 21 c-43 25 -124 37 -189 28z m130 -30 c15 -6
38 -19 50 -31 l21 -20 -20 -35 c-13 -22 -23 -59 -26 -103 -4 -58 -1 -76 21
-123 24 -54 25 -56 7 -72 -49 -44 -149 -56 -215 -26 -78 36 -116 104 -116 206
0 97 40 168 113 200 39 17 126 19 165 4z m371 -8 c63 -32 97 -85 107 -167 14
-104 -28 -189 -113 -231 -68 -33 -142 -29 -200 13 l-37 27 24 48 c32 66 33
160 2 220 -12 23 -20 48 -17 56 3 8 25 23 48 33 56 25 137 26 186 1z m-250
-184 c2 -40 -1 -85 -8 -102 -10 -27 -12 -28 -22 -12 -17 31 -22 131 -8 171 18
55 34 31 38 -57z"/>
<path d="M3096 982 c-119 -2 -128 -4 -108 -18 21 -15 22 -21 22 -225 0 -208 0
-210 -22 -219 -16 -6 22 -9 115 -9 152 -1 140 -6 162 69 l7 25 -17 -23 c-26
-35 -69 -52 -135 -52 l-60 0 0 100 0 100 59 0 c51 0 62 -3 75 -22 15 -21 16
-20 15 32 0 30 -3 48 -6 40 -10 -24 -25 -30 -85 -30 l-58 0 0 100 0 100 74 0
c66 0 77 -3 90 -22 16 -22 16 -22 16 14 0 20 -3 38 -7 40 -5 2 -66 2 -137 0z"/>
<path d="M640 970 c0 -15 -159 -390 -176 -418 -9 -13 -25 -27 -37 -32 -16 -6
-3 -9 48 -9 52 0 66 2 53 10 -23 13 -23 25 3 93 l22 56 91 0 91 0 24 -67 c23
-64 23 -67 6 -80 -16 -11 -9 -13 56 -12 53 0 68 3 52 9 -31 13 -41 31 -134
258 -74 178 -99 227 -99 192z m44 -168 c20 -54 36 -102 36 -105 0 -4 -34 -7
-75 -7 -44 0 -75 4 -75 10 0 11 71 200 75 200 2 0 19 -44 39 -98z"/>
<path d="M2208 964 c22 -15 22 -19 22 -225 0 -208 0 -210 -22 -219 -17 -6 -3
-9 52 -9 67 -1 72 1 50 12 l-25 13 -3 206 -2 207 27 15 c27 15 25 15 -47 16
-70 0 -73 -1 -52 -16z"/>
<path d="M2448 753 l-3 -227 -25 -7 c-16 -4 1 -7 45 -7 51 -1 64 2 48 8 -31
13 -34 34 -31 209 l3 155 180 -192 180 -193 5 227 5 226 25 13 c23 13 20 14
-42 15 l-67 0 24 -25 c24 -24 25 -27 25 -185 0 -90 -4 -160 -9 -158 -5 2 -86
85 -180 186 -95 100 -174 182 -176 182 -3 0 -6 -102 -7 -227z"/>
<path d="M1360 210 c0 -100 3 -120 15 -120 13 0 15 20 15 120 0 100 -2 120
-15 120 -12 0 -15 -20 -15 -120z"/>
<path d="M1710 210 c0 -100 3 -120 15 -120 12 0 15 13 15 59 0 70 23 108 58
97 20 -7 22 -14 22 -82 0 -59 3 -74 15 -74 12 0 15 15 15 78 0 47 -5 83 -12
90 -17 17 -58 15 -80 -5 -17 -15 -18 -14 -18 30 0 35 -4 47 -15 47 -12 0 -15
-20 -15 -120z"/>
<path d="M1900 315 c0 -8 7 -15 15 -15 8 0 15 7 15 15 0 8 -7 15 -15 15 -8 0
-15 -7 -15 -15z"/>
<path d="M1630 290 c0 -11 -7 -20 -15 -20 -8 0 -15 -4 -15 -10 0 -5 5 -10 10
-10 6 0 10 -29 10 -68 0 -73 10 -92 47 -92 28 0 30 16 3 23 -17 4 -20 14 -20
71 0 52 3 66 15 66 8 0 15 5 15 10 0 6 -7 10 -15 10 -8 0 -15 9 -15 20 0 11
-4 20 -10 20 -5 0 -10 -9 -10 -20z"/>
<path d="M1218 259 c-25 -14 -38 -72 -27 -114 11 -38 33 -55 73 -55 33 0 73
37 57 53 -8 8 -17 5 -31 -11 -24 -26 -30 -27 -54 -9 -26 19 -26 95 0 114 23
17 29 16 48 -2 19 -19 36 -19 36 0 0 30 -66 46 -102 24z"/>
<path d="M1458 260 c-27 -16 -41 -74 -28 -115 30 -90 150 -64 150 33 0 73 -64
115 -122 82z m76 -26 c9 -9 16 -32 16 -54 0 -42 -20 -70 -49 -70 -28 0 -44 26
-44 70 0 63 40 91 77 54z"/>
<path d="M1900 180 c0 -73 3 -90 15 -90 12 0 15 17 15 90 0 73 -3 90 -15 90
-12 0 -15 -17 -15 -90z"/>
<path d="M1970 180 c0 -73 3 -90 15 -90 12 0 15 14 15 64 0 65 14 96 44 96 26
0 36 -26 36 -92 0 -54 3 -68 15 -68 22 0 21 142 -1 164 -18 18 -47 20 -75 6
-13 -7 -19 -7 -19 0 0 5 -7 10 -15 10 -12 0 -15 -17 -15 -90z"/>
<path d="M2170 250 c-15 -15 -20 -33 -20 -70 0 -77 54 -116 102 -73 17 15 18
15 18 -10 0 -47 -44 -72 -74 -42 -19 19 -36 19 -36 0 0 -19 31 -35 69 -35 20
0 36 8 50 26 18 23 21 41 21 125 0 81 -3 99 -15 99 -8 0 -15 -7 -15 -16 0 -14
-1 -14 -16 0 -21 22 -60 20 -84 -4z m84 -22 c31 -43 9 -118 -34 -118 -24 0
-40 29 -40 74 0 59 45 86 74 44z"/>
</g>
</svg>
